<?xml version="1.0" encoding="iso-8859-1"?>
<!-- Generator: Adobe Illustrator 19.0.0, SVG Export Plug-In . SVG Version: 6.00 Build 0)  -->
<svg version="1.1" id="Layer_1" xmlns="http://www.w3.org/2000/svg" xmlns:xlink="http://www.w3.org/1999/xlink" x="0px" y="0px"
	 viewBox="0 0 512.003 512.003" style="enable-background:new 0 0 512.003 512.003;" xml:space="preserve">
<g>
	<g>
		<g>
			<circle cx="42.669" cy="42.668" r="8.533"/>
			<circle cx="76.803" cy="42.668" r="8.533"/>
			<circle cx="110.936" cy="42.668" r="8.533"/>
			<path d="M59.736,136.535h17.067c4.71,0,8.533-3.823,8.533-8.533s-3.823-8.533-8.533-8.533H59.736
				c-4.71,0-8.533,3.823-8.533,8.533S55.026,136.535,59.736,136.535z"/>
			<path d="M110.936,136.535h238.933c4.71,0,8.533-3.823,8.533-8.533s-3.823-8.533-8.533-8.533H110.936
				c-4.71,0-8.533,3.823-8.533,8.533S106.226,136.535,110.936,136.535z"/>
			<path d="M384.003,136.535h34.133c4.719,0,8.533-3.823,8.533-8.533s-3.814-8.533-8.533-8.533h-34.133
				c-4.71,0-8.533,3.823-8.533,8.533S379.292,136.535,384.003,136.535z"/>
			<path d="M59.736,187.735h196.267c4.71,0,8.533-3.823,8.533-8.533s-3.823-8.533-8.533-8.533H59.736
				c-4.71,0-8.533,3.823-8.533,8.533S55.026,187.735,59.736,187.735z"/>
			<path d="M418.136,170.668h-128c-4.71,0-8.533,3.823-8.533,8.533s3.823,8.533,8.533,8.533h128c4.719,0,8.533-3.823,8.533-8.533
				S422.855,170.668,418.136,170.668z"/>
			<path d="M59.736,238.935h17.067c4.71,0,8.533-3.823,8.533-8.533s-3.823-8.533-8.533-8.533H59.736
				c-4.71,0-8.533,3.823-8.533,8.533S55.026,238.935,59.736,238.935z"/>
			<path d="M358.403,230.401c0-4.71-3.823-8.533-8.533-8.533H110.936c-4.71,0-8.533,3.823-8.533,8.533s3.823,8.533,8.533,8.533
				h238.933C354.58,238.935,358.403,235.112,358.403,230.401z"/>
			<path d="M418.136,221.868h-34.133c-4.71,0-8.533,3.823-8.533,8.533s3.823,8.533,8.533,8.533h34.133
				c4.719,0,8.533-3.823,8.533-8.533S422.855,221.868,418.136,221.868z"/>
			<path d="M59.736,290.135h196.267c4.71,0,8.533-3.823,8.533-8.533s-3.823-8.533-8.533-8.533H59.736
				c-4.71,0-8.533,3.823-8.533,8.533S55.026,290.135,59.736,290.135z"/>
			<path d="M418.136,273.068h-128c-4.71,0-8.533,3.823-8.533,8.533s3.823,8.533,8.533,8.533h128c4.719,0,8.533-3.823,8.533-8.533
				S422.855,273.068,418.136,273.068z"/>
			<path d="M59.736,341.335h17.067c4.71,0,8.533-3.823,8.533-8.533c0-4.71-3.823-8.533-8.533-8.533H59.736
				c-4.71,0-8.533,3.823-8.533,8.533C51.203,337.512,55.026,341.335,59.736,341.335z"/>
			<path d="M349.869,324.268H110.936c-4.71,0-8.533,3.823-8.533,8.533c0,4.71,3.823,8.533,8.533,8.533h238.933
				c4.71,0,8.533-3.823,8.533-8.533C358.403,328.091,354.58,324.268,349.869,324.268z"/>
			<path d="M256.003,375.468H59.736c-4.71,0-8.533,3.823-8.533,8.533s3.823,8.533,8.533,8.533h196.267
				c4.71,0,8.533-3.823,8.533-8.533S260.713,375.468,256.003,375.468z"/>
			<path d="M477.867,345.78V76.852c0-0.017,0.003-0.034,0.003-0.051v-51.2c0-14.114-11.486-25.6-25.6-25.6H25.603
				c-14.114,0-25.6,11.486-25.6,25.6v51.149C0.002,76.768,0,76.784,0,76.801v375.467c0,14.114,11.486,25.6,25.6,25.6h320.184
				c17.232,20.835,43.269,34.133,72.352,34.133c51.755,0,93.867-42.112,93.867-93.867
				C512.003,389.05,498.703,363.012,477.867,345.78z M17.069,25.601c0-4.702,3.831-8.533,8.533-8.533h426.667
				c4.71,0,8.533,3.831,8.533,8.533v42.667H17.069V25.601z M25.6,460.801c-4.702,0-8.533-3.831-8.533-8.533V85.335H460.8v249.203
				c-12.808-6.564-27.312-10.27-42.664-10.27c-36.401,0-68.032,20.833-83.596,51.2h-44.404c-4.71,0-8.533,3.823-8.533,8.533
				s3.823,8.533,8.533,8.533h37.682c-2.311,8.141-3.549,16.729-3.549,25.6c0,15.353,3.706,29.858,10.271,42.667H25.6z
				 M418.136,494.935c-24.793,0-46.869-11.825-60.921-30.118c-0.27-0.431-0.577-0.835-0.918-1.21
				c-9.394-12.74-14.961-28.467-14.961-45.472c0-42.342,34.458-76.8,76.8-76.8c16.99,0,32.701,5.555,45.434,14.931
				c0.397,0.364,0.827,0.691,1.287,0.976c18.272,14.053,30.079,36.117,30.079,60.893
				C494.936,460.477,460.487,494.935,418.136,494.935z"/>
			<path d="M389.123,377.175c-3.772-2.833-9.114-2.065-11.947,1.707l-25.6,34.133c-2.278,3.029-2.278,7.211,0,10.24l25.6,34.133
				c1.681,2.236,4.241,3.413,6.835,3.413c1.775,0,3.575-0.555,5.111-1.707c3.772-2.824,4.531-8.175,1.707-11.947l-21.76-29.013
				l21.76-29.013C393.654,385.35,392.894,379.999,389.123,377.175z"/>
			<path d="M484.696,413.015l-25.6-34.133c-2.824-3.772-8.175-4.548-11.947-1.707c-3.772,2.825-4.54,8.175-1.707,11.947
				l21.76,29.013l-21.76,29.013c-2.833,3.772-2.065,9.122,1.707,11.947c1.536,1.152,3.328,1.707,5.111,1.707
				c2.603,0,5.154-1.178,6.835-3.413l25.6-34.133C486.966,420.225,486.966,416.044,484.696,413.015z"/>
			<path d="M428.342,367.105c-4.608-0.922-9.122,2.065-10.035,6.69l-17.067,85.333c-0.93,4.617,2.074,9.114,6.69,10.035
				c0.563,0.12,1.126,0.171,1.681,0.171c3.985,0,7.552-2.807,8.354-6.861l17.067-85.333
				C435.962,372.524,432.958,368.027,428.342,367.105z"/>
		</g>
	</g>
</g>
<g>
</g>
<g>
</g>
<g>
</g>
<g>
</g>
<g>
</g>
<g>
</g>
<g>
</g>
<g>
</g>
<g>
</g>
<g>
</g>
<g>
</g>
<g>
</g>
<g>
</g>
<g>
</g>
<g>
</g>
</svg>
